<svg width="58" height="59" viewBox="0 0 58 59" fill="none" xmlns="http://www.w3.org/2000/svg">
<path d="M43.2838 54.9007L19.8652 54.9007C6.39004 54.9007 1 49.5106 1 36.0355V19.8653C1 6.39013 6.39004 1 19.8652 1H36.0355C49.5106 1 54.9007 6.39013 54.9007 19.8653L54.9007 43.2838" fill="#111D4A"/>
<path d="M43.2838 54.9007L19.8652 54.9007C6.39004 54.9007 1 49.5106 1 36.0355V19.8653C1 6.39013 6.39004 1 19.8652 1H36.0355C49.5106 1 54.9007 6.39013 54.9007 19.8653L54.9007 43.2838" stroke="white" stroke-width="2" stroke-linecap="round" stroke-linejoin="round"/>
<path d="M15.116 39.2553C17.3878 39.2553 19.2295 37.4136 19.2295 35.1418C19.2295 32.87 17.3878 31.0283 15.116 31.0283C12.8442 31.0283 11.0026 32.87 11.0026 35.1418C11.0026 37.4136 12.8442 39.2553 15.116 39.2553Z" fill="#111D4A" stroke="white" stroke-width="3" stroke-linecap="round" stroke-linejoin="round"/>
<path d="M34.2937 32.39V16.3332C34.2937 12.9006 32.1376 12.4466 29.9816 13.0423L21.7829 15.2834C20.3078 15.6806 19.2581 16.8722 19.2581 18.5743V21.4396V23.3686V35.1417" fill="#111D4A"/>
<path d="M34.2937 32.39V16.3332C34.2937 12.9006 32.1376 12.4466 29.9816 13.0423L21.7829 15.2834C20.3078 15.6806 19.2581 16.8722 19.2581 18.5743V21.4396V23.3686V35.1417" stroke="white" stroke-width="3" stroke-linecap="round" stroke-linejoin="round"/>
<path d="M30.1801 36.5038C32.4519 36.5038 34.2936 34.6621 34.2936 32.3904C34.2936 30.1183 32.4519 28.2766 30.1801 28.2766C27.9084 28.2766 26.0667 30.1183 26.0667 32.3904C26.0667 34.6621 27.9084 36.5038 30.1801 36.5038Z" fill="#111D4A" stroke="white" stroke-width="3" stroke-linecap="round" stroke-linejoin="round"/>
<path d="M19.2296 23.3967L34.2933 19.2832L19.2296 23.3967Z" fill="#111D4A"/>
<path d="M19.2296 23.3967L34.2933 19.2832" stroke="white" stroke-width="2" stroke-linecap="round" stroke-linejoin="round"/>
<path d="M46.2199 55.6947C51.2335 55.6947 55.2979 51.6303 55.2979 46.6167C55.2979 41.6031 51.2335 37.5387 46.2199 37.5387C41.2062 37.5387 37.1418 41.6031 37.1418 46.6167C37.1418 51.6303 41.2062 55.6947 46.2199 55.6947Z" fill="#111D4A" stroke="white" stroke-width="2" stroke-linecap="round" stroke-linejoin="round"/>
<path d="M57 57.3968L54.1631 54.5599L57 57.3968Z" fill="#111D4A"/>
<path d="M57 57.3968L54.1631 54.5599" stroke="white" stroke-width="2" stroke-linecap="round" stroke-linejoin="round"/>
</svg>
