<svg width="55" height="56" viewBox="0 0 55 56" fill="none" xmlns="http://www.w3.org/2000/svg">
<path d="M18.6755 33.778H6.3C3.385 33.778 1 36.1654 1 39.0835V55H18.6755V33.778Z" fill="#111D4A" stroke="white" stroke-width="2" stroke-miterlimit="10" stroke-linecap="round" stroke-linejoin="round"/>
<path d="M31.0245 23.167H23.949C21.034 23.167 18.649 25.5545 18.649 28.4725V55.0001H36.3245V28.4725C36.3245 25.5545 33.966 23.167 31.0245 23.167Z" fill="#111D4A" stroke="white" stroke-width="2" stroke-miterlimit="10" stroke-linecap="round" stroke-linejoin="round"/>
<path d="M48.7 41.7363H36.3245V55.0001H54V47.0418C54 44.1238 51.615 41.7363 48.7 41.7363Z" fill="#111D4A" stroke="white" stroke-width="2" stroke-miterlimit="10" stroke-linecap="round" stroke-linejoin="round"/>
<path d="M28.878 2.13078L30.2825 4.94268C30.468 5.34059 30.9715 5.71198 31.3955 5.76503L33.9395 6.1895C35.556 6.45477 35.9535 7.64846 34.7875 8.78915L32.8 10.7787C32.4555 11.1236 32.27 11.7603 32.376 12.2112L32.9325 14.6518C33.383 16.5883 32.3495 17.3311 30.6535 16.323L28.2685 14.9171C27.8445 14.6518 27.129 14.6518 26.705 14.9171L24.32 16.323C22.624 17.3311 21.5904 16.5883 22.0409 14.6518L22.5975 12.2112C22.7035 11.7603 22.518 11.097 22.1734 10.7787L20.2124 8.8157C19.0464 7.64849 19.4174 6.48125 21.0604 6.21597L23.6045 5.79159C24.0285 5.712 24.532 5.34062 24.7175 4.96923L26.122 2.15726C26.8905 0.618661 28.1095 0.618715 28.878 2.13078Z" fill="#111D4A" stroke="white" stroke-width="2" stroke-linecap="round" stroke-linejoin="round"/>
</svg>
