<svg width="87" height="87" viewBox="0 0 87 87" fill="none" xmlns="http://www.w3.org/2000/svg">
<path d="M84.505 47.3777V63.8787C84.505 78.3171 76.2545 84.5049 63.8787 84.5049H22.6262C10.2505 84.5049 2 78.3171 2 63.8787V47.3777C2 36.4458 6.74404 30.2581 14.3757 27.9067C16.8509 27.1229 19.6148 26.7515 22.6262 26.7515H63.8787C66.8902 26.7515 69.6541 27.1229 72.1292 27.9067C79.7609 30.2581 84.505 36.4458 84.505 47.3777Z" fill="#111D4A" stroke="white" stroke-width="3" stroke-miterlimit="10" stroke-linecap="round" stroke-linejoin="round"/>
<path d="M72.1292 22.6262V27.9067C69.6541 27.1229 66.8902 26.7515 63.8787 26.7515H22.6262C19.6148 26.7515 16.8509 27.1229 14.3757 27.9067V22.6262C14.3757 18.0885 18.0885 14.3757 22.6262 14.3757H63.8787C68.4165 14.3757 72.1292 18.0885 72.1292 22.6262Z" fill="#111D4A" stroke="white" stroke-width="3" stroke-miterlimit="10" stroke-linecap="round" stroke-linejoin="round"/>
<path d="M59.7535 8.22917V14.3757H26.7515V8.22917C26.7515 4.80521 29.5567 2 32.9807 2H53.5243C56.9483 2 59.7535 4.80521 59.7535 8.22917Z" fill="#111D4A" stroke="white" stroke-width="3" stroke-miterlimit="10" stroke-linecap="round" stroke-linejoin="round"/>
<path d="M31.1655 73.9857C34.1729 73.9857 36.6108 71.5477 36.6108 68.5404C36.6108 65.5331 34.1729 63.0951 31.1655 63.0951C28.1582 63.0951 25.7202 65.5331 25.7202 68.5404C25.7202 71.5477 28.1582 73.9857 31.1655 73.9857Z" fill="#111D4A" stroke="white" stroke-width="3" stroke-linecap="round" stroke-linejoin="round"/>
<path d="M56.6591 64.9105V43.583C56.6591 39.0452 53.8127 38.3852 50.925 39.2102L39.9931 42.1804C38.013 42.7167 36.6517 44.2843 36.6517 46.5532V50.3484V52.906V68.5407" fill="#111D4A"/>
<path d="M56.6591 64.9105V43.583C56.6591 39.0452 53.8127 38.3852 50.925 39.2102L39.9931 42.1804C38.013 42.7167 36.6517 44.2843 36.6517 46.5532V50.3484V52.906V68.5407" stroke="white" stroke-width="3" stroke-linecap="round" stroke-linejoin="round"/>
<path d="M51.2138 70.3561C54.2211 70.3561 56.6591 67.9181 56.6591 64.9108C56.6591 61.9035 54.2211 59.4655 51.2138 59.4655C48.2065 59.4655 45.7684 61.9035 45.7684 64.9108C45.7684 67.9181 48.2065 70.3561 51.2138 70.3561Z" fill="#111D4A" stroke="white" stroke-width="3" stroke-linecap="round" stroke-linejoin="round"/>
<path d="M36.6517 52.9475L56.6591 47.5026L36.6517 52.9475Z" fill="#111D4A"/>
<path d="M36.6517 52.9475L56.6591 47.5026" stroke="white" stroke-width="3" stroke-linecap="round" stroke-linejoin="round"/>
</svg>
